<svg width="24" height="24" viewBox="0 0 24 24" fill="none" xmlns="http://www.w3.org/2000/svg">
    <path d="M7.651 1.573c-1.117.053-1.88.231-2.547.494-.69.269-1.275.63-1.857 1.214a5.143 5.143 0 0 0-1.208 1.86c-.258.67-.434 1.433-.483 2.55-.05 1.118-.06 1.478-.055 4.33.006 2.85.018 3.208.073 4.328.053 1.117.23 1.88.493 2.547.269.69.63 1.275 1.214 1.857.584.583 1.17.94 1.863 1.208.667.258 1.431.434 2.549.483 1.117.049 1.477.06 4.328.055 2.85-.006 3.21-.018 4.33-.071 1.119-.054 1.878-.233 2.545-.493.69-.27 1.276-.63 1.858-1.215.582-.585.94-1.17 1.207-1.862.259-.668.434-1.432.483-2.549.049-1.12.06-1.478.055-4.33-.006-2.85-.018-3.208-.072-4.327-.053-1.12-.23-1.88-.492-2.548a5.156 5.156 0 0 0-1.215-1.857 5.125 5.125 0 0 0-1.862-1.208c-.668-.258-1.431-.434-2.55-.483-1.117-.048-1.476-.06-4.328-.055-2.852.006-3.209.018-4.329.072zm.123 18.982c-1.024-.044-1.58-.215-1.95-.357a3.27 3.27 0 0 1-1.21-.783 3.234 3.234 0 0 1-.787-1.206c-.144-.37-.317-.926-.365-1.95-.052-1.106-.063-1.438-.069-4.241-.006-2.804.005-3.135.053-4.242.044-1.023.215-1.58.357-1.95.19-.491.417-.84.783-1.209a3.241 3.241 0 0 1 1.206-.788c.37-.144.926-.316 1.95-.365 1.106-.052 1.438-.063 4.241-.069 2.803-.006 3.136.005 4.243.053 1.023.045 1.58.214 1.95.357.49.19.84.416 1.209.783.369.367.596.716.788 1.207.145.369.316.924.365 1.948.052 1.107.064 1.44.07 4.242.004 2.803-.006 3.135-.054 4.242-.045 1.024-.214 1.58-.357 1.95-.19.49-.417.84-.784 1.21a3.243 3.243 0 0 1-1.206.787c-.37.144-.925.316-1.948.365-1.107.052-1.439.063-4.243.07-2.804.005-3.134-.006-4.242-.054m8.56-14.167a1.26 1.26 0 1 0 2.522-.005 1.26 1.26 0 0 0-2.522.005zm-9.725 5.623a5.391 5.391 0 1 0 10.783-.021 5.392 5.392 0 1 0-10.783.02zm1.891-.004a3.5 3.5 0 1 1 7-.014 3.5 3.5 0 0 1-7 .014z" fill="#000"/>
</svg>
