<svg width="24" height="24" viewBox="0 0 24 24" fill="none" xmlns="http://www.w3.org/2000/svg">
    <g clip-path="url(#kft993jrqa)">
        <path d="M8.97 19.53a.75.75 0 0 1-.073-.976l.073-.084L15.439 12l-6.47-6.47a.75.75 0 0 1-.072-.976l.073-.084a.75.75 0 0 1 .976-.073l.084.073 7 7a.75.75 0 0 1 .073.976l-.073.084-7 7a.75.75 0 0 1-1.06 0z" fill="#000"/>
    </g>
    <defs>
        <clipPath id="kft993jrqa">
            <path fill="#fff" d="M0 0h24v24H0z"/>
        </clipPath>
    </defs>
</svg>
