<svg width="24" height="24" viewBox="0 0 24 24" fill="none" xmlns="http://www.w3.org/2000/svg">
    <path d="M11.997 2.25c.986 0 1.75.744 2.23 1.717l1.586 3.199c.042.085.146.216.311.338.165.123.321.187.417.203l2.87.48c1.05.177 1.953.696 2.248 1.62.294.922-.14 1.869-.895 2.625l-.001.001-2.23 2.249a1.073 1.073 0 0 0-.23.443c-.06.208-.064.393-.039.506l.639 2.783c.266 1.164.186 2.355-.669 2.983-.858.631-2.016.343-3.039-.266l-2.69-1.607a1.034 1.034 0 0 0-.504-.111c-.222 0-.406.052-.512.113l-.002.002-2.685 1.602c-1.022.612-2.179.895-3.037.264-.854-.629-.938-1.817-.671-2.98l.638-2.783a1.114 1.114 0 0 0-.038-.506 1.073 1.073 0 0 0-.23-.443l-2.233-2.25c-.75-.757-1.182-1.703-.89-2.624.292-.924 1.193-1.444 2.244-1.62l2.869-.481c.09-.016.245-.079.409-.202a1.06 1.06 0 0 0 .31-.34l.003-.005 1.585-3.195c.485-.972 1.25-1.715 2.236-1.715z" fill="#000"/>
</svg>
