<svg width="24" height="24" viewBox="0 0 24 24" fill="none" xmlns="http://www.w3.org/2000/svg">
    <g clip-path="url(#ygx04jhrea)" stroke="#000" stroke-width="1.5" stroke-linecap="round" stroke-linejoin="round">
        <path d="m17.41 9.111-4.111 3.31c-.779.61-1.87.61-2.648 0l-4.147-3.31"/>
        <path clip-rule="evenodd" d="M7.404 3.75h9.089a4.778 4.778 0 0 1 3.451 1.533 4.836 4.836 0 0 1 1.278 3.57v6.293a4.836 4.836 0 0 1-1.278 3.571 4.778 4.778 0 0 1-3.451 1.533H7.404c-2.815 0-4.712-2.29-4.712-5.104V8.854c0-2.814 1.897-5.104 4.712-5.104z"/>
    </g>
    <defs>
        <clipPath id="ygx04jhrea">
            <path fill="#fff" d="M0 0h24v24H0z"/>
        </clipPath>
    </defs>
</svg>
