<svg width="24" height="24" viewBox="0 0 24 24" fill="none" xmlns="http://www.w3.org/2000/svg">
    <g clip-path="url(#ni03vcwbia)" fill="#000">
        <path d="M4 11.726a.75.75 0 0 1 .648-.743l.102-.007h15a.75.75 0 0 1 .102 1.493l-.102.007h-15a.75.75 0 0 1-.75-.75z"/>
        <path d="M13.171 6.233a.75.75 0 0 1 .974-1.136l.084.073 6.05 6.024a.75.75 0 0 1 .073.978l-.073.085-6.05 6.025a.75.75 0 0 1-1.13-.98l.072-.083 5.516-5.494-5.516-5.492z"/>
    </g>
    <defs>
        <clipPath id="ni03vcwbia">
            <path fill="#fff" d="M0 0h24v24H0z"/>
        </clipPath>
    </defs>
</svg>
