<svg width="17" height="17" viewBox="0 0 17 17" fill="none" xmlns="http://www.w3.org/2000/svg">
<path d="M13.2357 7.45118C13.2357 4.25665 10.6457 1.66677 7.45117 1.66667C4.25658 1.66667 1.66667 4.25659 1.66667 7.45118C1.66677 10.6457 4.25665 13.2357 7.45117 13.2357C10.6456 13.2356 13.2356 10.6456 13.2357 7.45118ZM14.9023 7.45118C14.9023 9.20837 14.2923 10.8224 13.2747 12.0964L16.4225 15.2442C16.748 15.5696 16.748 16.0971 16.4225 16.4225C16.0971 16.748 15.5696 16.748 15.2441 16.4225L12.0964 13.2748C10.8224 14.2923 9.20836 14.9023 7.45117 14.9024C3.33617 14.9024 0.000106112 11.5662 0 7.45118C0 3.33611 3.33611 0 7.45117 0C11.5661 0.000103296 14.9023 3.33618 14.9023 7.45118Z" fill="#828282"/>
</svg>
