<svg width="24" height="24" viewBox="0 0 24 24" fill="none" xmlns="http://www.w3.org/2000/svg">
<g clip-path="url(#clip0_5834_4128)">
<path d="M17.8828 10.9414C17.8828 7.10798 14.7748 4.00012 10.9414 4C7.1079 4 4 7.1079 4 10.9414C4.00013 14.7748 7.10798 17.8828 10.9414 17.8828C14.7747 17.8827 17.8827 14.7747 17.8828 10.9414ZM19.8828 10.9414C19.8828 13.05 19.1507 14.9869 17.9297 16.5156L21.707 20.293C22.0976 20.6835 22.0976 21.3165 21.707 21.707C21.3165 22.0976 20.6835 22.0976 20.293 21.707L16.5156 17.9297C14.9869 19.1507 13.05 19.8828 10.9414 19.8828C6.00341 19.8828 2.00013 15.8794 2 10.9414C2 6.00333 6.00333 2 10.9414 2C15.8794 2.00012 19.8828 6.00341 19.8828 10.9414Z" fill="black"/>
</g>
<defs>
<clipPath id="clip0_5834_4128">
<rect width="24" height="24" fill="white"/>
</clipPath>
</defs>
</svg>
