<svg width="24" height="24" viewBox="0 0 24 24" fill="none" xmlns="http://www.w3.org/2000/svg">
    <path fill-rule="evenodd" clip-rule="evenodd" d="M22 11.118C22 6.642 17.515 3 12 3S2 6.642 2 11.118c0 4.008 3.558 7.369 8.361 8.006.328.075.768.215.88.496.104.253.066.646.029.908 0 0-.122.702-.14.852l-.003.01c-.048.261-.181.977.873.533 1.067-.45 5.758-3.39 7.856-5.805 1.451-1.592 2.144-3.202 2.144-5zm-3.324 2.584a.188.188 0 0 0 .187-.187v-.712a.188.188 0 0 0-.187-.187h-1.91v-.74h1.91a.188.188 0 0 0 .187-.187v-.712a.188.188 0 0 0-.187-.187h-1.91v-.74h1.91a.188.188 0 0 0 .187-.187v-.711a.188.188 0 0 0-.187-.188h-2.809a.188.188 0 0 0-.187.188v4.354c0 .103.084.187.187.187h2.809v.01zM8.47 13.515a.188.188 0 0 1-.187.187h-2.81a.188.188 0 0 1-.186-.187V9.152c0-.103.084-.188.187-.188h.711c.103 0 .188.085.188.188v3.464h1.91c.103 0 .187.084.187.187v.712zm1.498-4.56h-.711a.188.188 0 0 0-.188.187v4.364c0 .103.085.187.188.187h.711a.188.188 0 0 0 .187-.187V9.142c.01-.103-.074-.187-.187-.187zm4.12 0h.712c.103 0 .187.084.177.197v4.363a.188.188 0 0 1-.187.187h-.702c-.01 0-.016-.002-.023-.004a.068.068 0 0 0-.024-.005h-.047l-.009-.01a.113.113 0 0 1-.047-.046l-2.004-2.697v2.594a.188.188 0 0 1-.187.187h-.711a.188.188 0 0 1-.188-.187V9.17c0-.103.085-.187.188-.187h.777c0 .01.01.01.01.01h.008c0 .009.01.009.01.009h.01l.008.01h.01l.019.018c.003.004.007.006.01.008.005.003.008.005.008.01l1.995 2.697V9.142c0-.103.084-.187.187-.187z" fill="#000"/>
</svg>
