<svg width="24" height="24" viewBox="0 0 24 24" fill="none" xmlns="http://www.w3.org/2000/svg">
    <path d="M12.025 21.5a.75.75 0 0 1-.743-.648l-.007-.102v-15a.75.75 0 0 1 1.493-.102l.007.102v15a.75.75 0 0 1-.75.75z" fill="#000"/>
    <path d="M6.532 12.33a.75.75 0 0 1-1.135-.975l.073-.084 6.023-6.05a.75.75 0 0 1 .98-.073l.083.073 6.025 6.05a.75.75 0 0 1-.979 1.131l-.083-.073-5.494-5.516-5.493 5.516zM4.25 3.75a.75.75 0 0 1 .648-.743L5 3h14a.75.75 0 0 1 .102 1.493L19 4.5H5a.75.75 0 0 1-.75-.75z" fill="#000"/>
</svg>
